<?xml version="1.0" encoding="UTF-8" standalone="no"?>
<svg
   xmlns:dc="http://purl.org/dc/elements/1.1/"
   xmlns:cc="http://creativecommons.org/ns#"
   xmlns:rdf="http://www.w3.org/1999/02/22-rdf-syntax-ns#"
   xmlns:svg="http://www.w3.org/2000/svg"
   xmlns="http://www.w3.org/2000/svg"
   xmlns:sodipodi="http://sodipodi.sourceforge.net/DTD/sodipodi-0.dtd"
   xmlns:inkscape="http://www.inkscape.org/namespaces/inkscape"
   width="100"
   height="112"
   viewBox="0 0 100 112"
   fill="none"
   version="1.1"
   id="svg88"
   sodipodi:docname="placemark.svg"
   inkscape:version="1.0.2-2 (e86c870879, 2021-01-15)">
  <metadata
     id="metadata94">
    <rdf:RDF>
      <cc:Work
         rdf:about="">
        <dc:format>image/svg+xml</dc:format>
        <dc:type
           rdf:resource="http://purl.org/dc/dcmitype/StillImage" />
        <dc:title></dc:title>
      </cc:Work>
    </rdf:RDF>
  </metadata>
  <defs
     id="defs92" />
  <sodipodi:namedview
     pagecolor="#ffffff"
     bordercolor="#666666"
     borderopacity="1"
     objecttolerance="10"
     gridtolerance="10"
     guidetolerance="10"
     inkscape:pageopacity="0"
     inkscape:pageshadow="2"
     inkscape:window-width="1920"
     inkscape:window-height="1017"
     id="namedview90"
     showgrid="false"
     inkscape:zoom="7.5892857"
     inkscape:cx="53.268076"
     inkscape:cy="55.8558"
     inkscape:window-x="-8"
     inkscape:window-y="-8"
     inkscape:window-maximized="1"
     inkscape:current-layer="svg88" />
  <path
     d="M50.0001 97.4388C22.436 97.4388 0 75.6474 0 48.875C0 22.1027 22.436 0 50.0001 0C77.5642 0 100 21.7914 100 48.5637C100 75.336 77.5642 97.4388 50.0001 97.4388ZM50.0001 14.9427C30.7693 14.9427 15.0641 30.1967 15.0641 48.875C15.0641 67.5534 30.7693 82.8074 50.0001 82.8074C69.2309 82.8074 84.9359 67.5534 84.9359 48.875C84.9359 30.1967 69.2309 14.9427 50.0001 14.9427Z"
     fill="#2BCBF3"
     id="path84" />
  <path
     d="M50.328 112L37.1352 94.9149L63.5208 94.9149L50.328 112Z"
     fill="#2BCBF3"
     id="path86" />
  <g
     aria-label="S"
     id="text98"
     style="font-style:normal;font-weight:normal;font-size:53.3333px;line-height:1.25;font-family:sans-serif;fill:#73d554;fill-opacity:1;fill-rule:nonzero;stroke:none">
    <path
       d="M 32.537625,72.705385 V 61.038713 q 3.171876,2.661459 6.890628,4.010418 3.718752,1.312501 7.51042,1.312501 2.22396,0 3.864586,-0.401042 1.677084,-0.401042 2.770834,-1.093751 1.130209,-0.729167 1.677084,-1.677084 0.546876,-0.984375 0.546876,-2.114584 0,-1.531251 -0.875001,-2.734376 -0.875,-1.203126 -2.406251,-2.22396 -1.494792,-1.020834 -3.572918,-1.968751 -2.078126,-0.947917 -4.484378,-1.932292 -6.125002,-2.552085 -9.151046,-6.234378 -2.989584,-3.682294 -2.989584,-8.895838 0,-4.083335 1.640625,-7.000003 1.640626,-2.953127 4.447919,-4.848961 2.843752,-1.895834 6.562503,-2.770834 3.718752,-0.911459 7.875004,-0.911459 4.083335,0 7.218754,0.510417 3.171876,0.473958 5.833336,1.494792 v 10.901047 q -1.312501,-0.911459 -2.88021,-1.604167 -1.531251,-0.692709 -3.171877,-1.130209 -1.640625,-0.473959 -3.281251,-0.692709 -1.604168,-0.21875 -3.062502,-0.21875 -2.005209,0 -3.645835,0.401042 -1.640625,0.364583 -2.770834,1.057292 -1.130209,0.692709 -1.750001,1.677084 -0.619792,0.947917 -0.619792,2.151043 0,1.3125 0.692709,2.369793 0.692708,1.020833 1.968751,1.968751 1.276042,0.911458 3.098959,1.822917 1.822918,0.875 4.119794,1.822918 3.135418,1.3125 5.614586,2.807293 2.515626,1.458334 4.302085,3.317709 1.78646,1.859376 2.734377,4.265628 0.947917,2.369792 0.947917,5.541669 0,4.375002 -1.677084,7.364587 -1.640626,2.953126 -4.484377,4.812502 -2.843752,1.822918 -6.63542,2.625001 -3.75521,0.802084 -7.947921,0.802084 -4.302085,0 -8.203129,-0.729167 -3.864585,-0.729167 -6.708336,-2.187501 z"
       style="font-style:normal;font-variant:normal;font-weight:bold;font-stretch:normal;font-size:74.6667px;font-family:'Segoe UI';-inkscape-font-specification:'Segoe UI Bold';fill:#73d554;fill-opacity:1;fill-rule:nonzero"
       id="path2865" />
  </g>
  <g
     id="g956">
    <path
       style="fill:#73d554;fill-opacity:1;fill-rule:nonzero;stroke-width:0.131765"
       d="m 44.176143,103.91734 -6.12689,-7.925614 -1.976471,-0.562039 C 20.720232,91.063953 8.4454796,79.846712 2.9970194,65.203511 -0.49633629,55.81482 -0.86003339,45.462863 1.9588141,35.652939 3.3248244,30.899059 5.7850309,25.791698 8.8258608,21.397027 10.919095,18.371841 14.368933,14.58729 17.299412,12.101348 25.419453,5.213071 35.157235,1.171522 45.879782,0.23940937 48.184912,0.03902401 54.244588,0.15696713 56.298665,0.44219832 61.046189,1.1014448 64.666597,2.0301763 68.750429,3.6364093 79.953287,8.0426627 89.364021,16.541746 94.765262,27.131095 c 2.511117,4.923145 4.055785,9.96993 4.839504,15.811764 0.295599,2.203387 0.338035,8.510411 0.07181,10.672941 -1.174207,9.538094 -4.438727,17.352955 -10.451351,25.019252 -1.366819,1.74274 -5.668561,6.067103 -7.437931,7.477045 -5.190439,4.136057 -10.62186,7.039116 -16.726279,8.940088 -1.087058,0.33852 -2.065328,0.662111 -2.173931,0.719091 -0.108603,0.05698 -2.926937,3.638912 -6.262963,7.959844 -3.336026,4.32094 -6.123009,7.91376 -6.193297,7.98405 -0.08255,0.0825 -2.296998,-2.67825 -6.254683,-7.79783 z m 8.894286,-21.183708 c 4.727927,-0.436167 8.495142,-1.502913 12.781177,-3.619191 9.344736,-4.614069 16.100428,-13.066256 18.306881,-22.90412 0.628499,-2.802277 0.771427,-4.161845 0.771427,-7.33805 0,-3.176205 -0.142928,-4.535773 -0.771427,-7.33805 C 82.278314,33.151133 77.047286,25.691918 69.55433,20.709332 67.87692,19.593907 64.221397,17.746889 62.306218,17.047095 56.188579,14.811751 49.371003,14.303615 42.924547,15.602513 32.22077,17.75922 23.177042,24.65749 18.414086,34.298313 c -1.640198,3.31997 -2.80984,7.335095 -3.217233,11.044059 -0.180668,1.644826 -0.180668,5.414972 0,7.059798 0.558698,5.086464 2.448078,10.356085 5.23032,14.587748 3.736564,5.683145 8.985805,10.118865 15.254173,12.890102 5.254704,2.323098 11.690849,3.379292 17.389083,2.853612 z"
       id="path939" />
  </g>
</svg>
